# xmcd
#
# Track frame offsets: 
#        150
#        7375
#        19764
#        29854
#        41306
#        51804
#        64923
#        75737
#        86346
#        98979
#        108728
#        123376
#
# Disc length: 1788 seconds
#
# Revision: 0
# Processed by: cddbd v1.5.2PL0 Copyright (c) Steve Scherf et al.
# Submitted via: ExactAudioCopy v0.95b3
#
DISCID=a006fa0c
DTITLE=The Beatles  - Live At The Hollywood Bowl  Dr. Ebbetts  FLAC
DYEAR=1900
DGENRE=
TTITLE0=Twist And Shout
TTITLE1=You Can't Do That
TTITLE2=All My Loving
TTITLE3=She Loves You
TTITLE4=Things We Said Today
TTITLE5=Roll Over Beethoven
TTITLE6=Can't Buy me Love
TTITLE7=If I Fell
TTITLE8=I Want To Hold Your Hand
TTITLE9=Boys
TTITLE10=A Hard Day's Night
TTITLE11=Long Tall Sally
EXTD=
EXTT0=
EXTT1=
EXTT2=
EXTT3=
EXTT4=
EXTT5=
EXTT6=
EXTT7=
EXTT8=
EXTT9=
EXTT10=
EXTT11=
PLAYORDER=
